<mxfile host="app.diagrams.net" agent="Mozilla/5.0 (Windows NT 10.0; Win64; x64) AppleWebKit/537.36 (KHTML, like Gecko) Chrome/140.0.0.0 Safari/537.36" version="28.2.0">
  <diagram name="Page-1" id="-fORK37648hEAS0hQ_zi">
    <mxGraphModel dx="1042" dy="562" grid="1" gridSize="10" guides="1" tooltips="1" connect="1" arrows="1" fold="1" page="1" pageScale="1" pageWidth="850" pageHeight="1100" math="0" shadow="0">
      <root>
        <mxCell id="0" />
        <mxCell id="1" parent="0" />
        <mxCell id="6zjgOrCj7R7MlmCkWjps-2" value="Client - Server Architecture" style="text;html=1;align=center;verticalAlign=middle;whiteSpace=wrap;rounded=0;" parent="1" vertex="1">
          <mxGeometry x="240" y="30" width="440" height="70" as="geometry" />
        </mxCell>
        <mxCell id="6zjgOrCj7R7MlmCkWjps-11" value="" style="edgeStyle=orthogonalEdgeStyle;rounded=0;orthogonalLoop=1;jettySize=auto;html=1;" parent="1" source="6zjgOrCj7R7MlmCkWjps-3" target="6zjgOrCj7R7MlmCkWjps-10" edge="1">
          <mxGeometry relative="1" as="geometry" />
        </mxCell>
        <mxCell id="6zjgOrCj7R7MlmCkWjps-3" value="Application" style="rounded=0;whiteSpace=wrap;html=1;" parent="1" vertex="1">
          <mxGeometry x="130" y="300" width="430" height="110" as="geometry" />
        </mxCell>
        <mxCell id="6zjgOrCj7R7MlmCkWjps-4" value="Client" style="rounded=0;whiteSpace=wrap;html=1;" parent="1" vertex="1">
          <mxGeometry x="110" y="100" width="120" height="60" as="geometry" />
        </mxCell>
        <mxCell id="6zjgOrCj7R7MlmCkWjps-5" value="Client = One who requests a resource" style="text;html=1;align=center;verticalAlign=middle;whiteSpace=wrap;rounded=0;" parent="1" vertex="1">
          <mxGeometry x="320" y="115" width="250" height="30" as="geometry" />
        </mxCell>
        <mxCell id="6zjgOrCj7R7MlmCkWjps-6" value="Server = One who responds to the client" style="text;html=1;align=center;verticalAlign=middle;whiteSpace=wrap;rounded=0;" parent="1" vertex="1">
          <mxGeometry x="320" y="160" width="250" height="30" as="geometry" />
        </mxCell>
        <mxCell id="6zjgOrCj7R7MlmCkWjps-7" value="Server" style="rounded=0;whiteSpace=wrap;html=1;" parent="1" vertex="1">
          <mxGeometry x="660" y="115" width="120" height="60" as="geometry" />
        </mxCell>
        <mxCell id="6zjgOrCj7R7MlmCkWjps-8" value="1 - Tier Architecture" style="text;html=1;align=center;verticalAlign=middle;whiteSpace=wrap;rounded=0;" parent="1" vertex="1">
          <mxGeometry x="210" y="220" width="210" height="60" as="geometry" />
        </mxCell>
        <mxCell id="6zjgOrCj7R7MlmCkWjps-9" value="Developers" style="text;html=1;align=center;verticalAlign=middle;whiteSpace=wrap;rounded=0;" parent="1" vertex="1">
          <mxGeometry x="160" y="320" width="60" height="30" as="geometry" />
        </mxCell>
        <mxCell id="6zjgOrCj7R7MlmCkWjps-10" value="Dead" style="rounded=0;whiteSpace=wrap;html=1;" parent="1" vertex="1">
          <mxGeometry x="620" y="300" width="160" height="110" as="geometry" />
        </mxCell>
        <mxCell id="6zjgOrCj7R7MlmCkWjps-13" value="2 - Tier Architecture" style="text;html=1;align=center;verticalAlign=middle;whiteSpace=wrap;rounded=0;" parent="1" vertex="1">
          <mxGeometry x="340" y="460" width="210" height="60" as="geometry" />
        </mxCell>
        <mxCell id="6zjgOrCj7R7MlmCkWjps-17" value="Same Laptop" style="text;html=1;align=center;verticalAlign=middle;whiteSpace=wrap;rounded=0;" parent="1" vertex="1">
          <mxGeometry x="430" y="320" width="60" height="30" as="geometry" />
        </mxCell>
        <mxCell id="6zjgOrCj7R7MlmCkWjps-18" value="Both Client and Server are the same" style="text;html=1;align=center;verticalAlign=middle;whiteSpace=wrap;rounded=0;" parent="1" vertex="1">
          <mxGeometry x="170" y="370" width="320" height="30" as="geometry" />
        </mxCell>
        <mxCell id="6zjgOrCj7R7MlmCkWjps-32" value="Databse" style="text;html=1;align=center;verticalAlign=middle;whiteSpace=wrap;rounded=0;" parent="1" vertex="1">
          <mxGeometry x="440" y="360" width="60" height="30" as="geometry" />
        </mxCell>
        <mxCell id="6zjgOrCj7R7MlmCkWjps-34" value="" style="rounded=0;whiteSpace=wrap;html=1;" parent="1" vertex="1">
          <mxGeometry x="30" y="560" width="790" height="530" as="geometry" />
        </mxCell>
        <mxCell id="6zjgOrCj7R7MlmCkWjps-35" value="Browser" style="rounded=1;whiteSpace=wrap;html=1;" parent="1" vertex="1">
          <mxGeometry x="105" y="690" width="100" height="60" as="geometry" />
        </mxCell>
        <mxCell id="6zjgOrCj7R7MlmCkWjps-36" value="Client = One who requests a resource" style="text;html=1;align=center;verticalAlign=middle;whiteSpace=wrap;rounded=0;" parent="1" vertex="1">
          <mxGeometry x="75" y="630" width="250" height="30" as="geometry" />
        </mxCell>
        <mxCell id="6zjgOrCj7R7MlmCkWjps-37" value="Browser" style="rounded=1;whiteSpace=wrap;html=1;" parent="1" vertex="1">
          <mxGeometry x="105" y="810" width="120" height="60" as="geometry" />
        </mxCell>
        <mxCell id="6zjgOrCj7R7MlmCkWjps-38" value="Browser" style="rounded=1;whiteSpace=wrap;html=1;" parent="1" vertex="1">
          <mxGeometry x="105" y="920" width="120" height="60" as="geometry" />
        </mxCell>
        <mxCell id="6zjgOrCj7R7MlmCkWjps-39" value="" style="shape=process;whiteSpace=wrap;html=1;backgroundOutline=1;rotation=90;" parent="1" vertex="1">
          <mxGeometry x="495" y="700" width="310" height="240" as="geometry" />
        </mxCell>
        <mxCell id="6zjgOrCj7R7MlmCkWjps-40" value="HDD 100 GB" style="text;html=1;align=center;verticalAlign=middle;whiteSpace=wrap;rounded=0;" parent="1" vertex="1">
          <mxGeometry x="605" y="950" width="60" height="30" as="geometry" />
        </mxCell>
        <mxCell id="6zjgOrCj7R7MlmCkWjps-41" value="10 GB" style="text;html=1;align=center;verticalAlign=middle;whiteSpace=wrap;rounded=0;" parent="1" vertex="1">
          <mxGeometry x="605" y="910" width="60" height="30" as="geometry" />
        </mxCell>
        <mxCell id="6zjgOrCj7R7MlmCkWjps-42" value="Application 5 GB" style="rounded=1;whiteSpace=wrap;html=1;fillColor=#dae8fc;strokeColor=#6c8ebf;" parent="1" vertex="1">
          <mxGeometry x="575" y="720" width="120" height="60" as="geometry" />
        </mxCell>
        <mxCell id="6zjgOrCj7R7MlmCkWjps-43" value="Data Base&lt;br&gt;5 GB" style="rounded=1;whiteSpace=wrap;html=1;fillColor=#d5e8d4;strokeColor=#82b366;" parent="1" vertex="1">
          <mxGeometry x="575" y="840" width="120" height="60" as="geometry" />
        </mxCell>
        <mxCell id="6zjgOrCj7R7MlmCkWjps-44" value="" style="endArrow=classic;startArrow=classic;html=1;rounded=0;exitX=0.5;exitY=0;exitDx=0;exitDy=0;" parent="1" source="6zjgOrCj7R7MlmCkWjps-43" edge="1">
          <mxGeometry width="50" height="50" relative="1" as="geometry">
            <mxPoint x="585" y="840" as="sourcePoint" />
            <mxPoint x="635" y="790" as="targetPoint" />
            <Array as="points">
              <mxPoint x="635" y="800" />
            </Array>
          </mxGeometry>
        </mxCell>
        <mxCell id="6zjgOrCj7R7MlmCkWjps-46" value="" style="curved=1;endArrow=classic;html=1;rounded=0;exitX=1;exitY=0.5;exitDx=0;exitDy=0;" parent="1" source="6zjgOrCj7R7MlmCkWjps-37" edge="1">
          <mxGeometry width="50" height="50" relative="1" as="geometry">
            <mxPoint x="485" y="800" as="sourcePoint" />
            <mxPoint x="535" y="750" as="targetPoint" />
            <Array as="points">
              <mxPoint x="455" y="870" />
              <mxPoint x="535" y="800" />
              <mxPoint x="485" y="750" />
            </Array>
          </mxGeometry>
        </mxCell>
        <mxCell id="6zjgOrCj7R7MlmCkWjps-47" value="" style="curved=1;endArrow=classic;html=1;rounded=0;exitX=1;exitY=0.5;exitDx=0;exitDy=0;" parent="1" source="6zjgOrCj7R7MlmCkWjps-38" edge="1">
          <mxGeometry width="50" height="50" relative="1" as="geometry">
            <mxPoint x="485" y="800" as="sourcePoint" />
            <mxPoint x="535" y="750" as="targetPoint" />
            <Array as="points">
              <mxPoint x="535" y="800" />
              <mxPoint x="485" y="750" />
            </Array>
          </mxGeometry>
        </mxCell>
        <mxCell id="6zjgOrCj7R7MlmCkWjps-48" value="Server = One who responds to the client" style="text;html=1;align=center;verticalAlign=middle;whiteSpace=wrap;rounded=0;" parent="1" vertex="1">
          <mxGeometry x="525" y="610" width="250" height="30" as="geometry" />
        </mxCell>
        <mxCell id="6zjgOrCj7R7MlmCkWjps-50" value="Network" style="text;html=1;align=center;verticalAlign=middle;whiteSpace=wrap;rounded=0;" parent="1" vertex="1">
          <mxGeometry x="105" y="580" width="60" height="30" as="geometry" />
        </mxCell>
        <mxCell id="6zjgOrCj7R7MlmCkWjps-51" value="" style="curved=1;endArrow=classic;html=1;rounded=0;" parent="1" source="6zjgOrCj7R7MlmCkWjps-35" edge="1">
          <mxGeometry width="50" height="50" relative="1" as="geometry">
            <mxPoint x="490" y="770" as="sourcePoint" />
            <mxPoint x="540" y="720" as="targetPoint" />
            <Array as="points">
              <mxPoint x="540" y="770" />
              <mxPoint x="490" y="720" />
            </Array>
          </mxGeometry>
        </mxCell>
        <mxCell id="6zjgOrCj7R7MlmCkWjps-52" value="Hacker" style="text;html=1;align=center;verticalAlign=middle;whiteSpace=wrap;rounded=0;" parent="1" vertex="1">
          <mxGeometry x="690" y="490" width="60" height="30" as="geometry" />
        </mxCell>
        <mxCell id="6zjgOrCj7R7MlmCkWjps-53" value="3 - Tier Architecture" style="text;html=1;align=center;verticalAlign=middle;whiteSpace=wrap;rounded=0;" parent="1" vertex="1">
          <mxGeometry x="340" y="1170" width="210" height="60" as="geometry" />
        </mxCell>
        <mxCell id="6zjgOrCj7R7MlmCkWjps-54" value="" style="rounded=0;whiteSpace=wrap;html=1;" parent="1" vertex="1">
          <mxGeometry x="60" y="1280" width="750" height="430" as="geometry" />
        </mxCell>
        <mxCell id="6zjgOrCj7R7MlmCkWjps-88" style="edgeStyle=orthogonalEdgeStyle;rounded=0;orthogonalLoop=1;jettySize=auto;html=1;" parent="1" source="6zjgOrCj7R7MlmCkWjps-55" target="6zjgOrCj7R7MlmCkWjps-85" edge="1">
          <mxGeometry relative="1" as="geometry" />
        </mxCell>
        <mxCell id="6zjgOrCj7R7MlmCkWjps-55" value="browser" style="rounded=1;whiteSpace=wrap;html=1;" parent="1" vertex="1">
          <mxGeometry x="70" y="1360" width="120" height="60" as="geometry" />
        </mxCell>
        <mxCell id="6zjgOrCj7R7MlmCkWjps-89" value="" style="edgeStyle=orthogonalEdgeStyle;rounded=0;orthogonalLoop=1;jettySize=auto;html=1;" parent="1" source="6zjgOrCj7R7MlmCkWjps-56" target="6zjgOrCj7R7MlmCkWjps-85" edge="1">
          <mxGeometry relative="1" as="geometry" />
        </mxCell>
        <mxCell id="6zjgOrCj7R7MlmCkWjps-56" value="browser" style="rounded=1;whiteSpace=wrap;html=1;" parent="1" vertex="1">
          <mxGeometry x="70" y="1490" width="120" height="60" as="geometry" />
        </mxCell>
        <mxCell id="6zjgOrCj7R7MlmCkWjps-66" value="crash when resources are not sufficient" style="text;html=1;align=center;verticalAlign=middle;whiteSpace=wrap;rounded=0;" parent="1" vertex="1">
          <mxGeometry x="680" y="1020" width="60" height="30" as="geometry" />
        </mxCell>
        <mxCell id="6zjgOrCj7R7MlmCkWjps-70" value="Client = One who requests a resource" style="text;html=1;align=center;verticalAlign=middle;whiteSpace=wrap;rounded=0;" parent="1" vertex="1">
          <mxGeometry x="140" y="1300" width="250" height="30" as="geometry" />
        </mxCell>
        <mxCell id="6zjgOrCj7R7MlmCkWjps-71" value="Server = One who responds to the client" style="text;html=1;align=center;verticalAlign=middle;whiteSpace=wrap;rounded=0;" parent="1" vertex="1">
          <mxGeometry x="500" y="1300" width="250" height="30" as="geometry" />
        </mxCell>
        <mxCell id="6zjgOrCj7R7MlmCkWjps-74" value="Business Layer" style="text;html=1;align=center;verticalAlign=middle;whiteSpace=wrap;rounded=0;" parent="1" vertex="1">
          <mxGeometry x="430" y="1570" width="60" height="30" as="geometry" />
        </mxCell>
        <mxCell id="6zjgOrCj7R7MlmCkWjps-76" value="Data Layer" style="text;html=1;align=center;verticalAlign=middle;whiteSpace=wrap;rounded=0;" parent="1" vertex="1">
          <mxGeometry x="580" y="1560" width="120" height="30" as="geometry" />
        </mxCell>
        <mxCell id="6zjgOrCj7R7MlmCkWjps-77" value="Client Layer" style="text;html=1;align=center;verticalAlign=middle;whiteSpace=wrap;rounded=0;" parent="1" vertex="1">
          <mxGeometry x="100" y="1580" width="60" height="30" as="geometry" />
        </mxCell>
        <mxCell id="6zjgOrCj7R7MlmCkWjps-79" value="" style="rounded=0;whiteSpace=wrap;html=1;" parent="1" vertex="1">
          <mxGeometry x="410" y="1330" width="350" height="220" as="geometry" />
        </mxCell>
        <mxCell id="6zjgOrCj7R7MlmCkWjps-80" value="Database" style="rounded=1;whiteSpace=wrap;html=1;rotation=90;" parent="1" vertex="1">
          <mxGeometry x="655" y="1410" width="120" height="60" as="geometry" />
        </mxCell>
        <mxCell id="6zjgOrCj7R7MlmCkWjps-81" value="Application" style="rounded=1;whiteSpace=wrap;html=1;rotation=90;" parent="1" vertex="1">
          <mxGeometry x="440" y="1410" width="120" height="60" as="geometry" />
        </mxCell>
        <mxCell id="6zjgOrCj7R7MlmCkWjps-82" value="" style="shape=flexArrow;endArrow=classic;startArrow=classic;html=1;rounded=0;" parent="1" target="6zjgOrCj7R7MlmCkWjps-80" edge="1">
          <mxGeometry width="100" height="100" relative="1" as="geometry">
            <mxPoint x="570" y="1440" as="sourcePoint" />
            <mxPoint x="705" y="1210" as="targetPoint" />
            <Array as="points">
              <mxPoint x="610" y="1450" />
            </Array>
          </mxGeometry>
        </mxCell>
        <mxCell id="6zjgOrCj7R7MlmCkWjps-84" value="Private" style="text;html=1;align=center;verticalAlign=middle;whiteSpace=wrap;rounded=0;" parent="1" vertex="1">
          <mxGeometry x="710" y="1345" width="60" height="30" as="geometry" />
        </mxCell>
        <mxCell id="6zjgOrCj7R7MlmCkWjps-86" value="" style="edgeStyle=orthogonalEdgeStyle;rounded=0;orthogonalLoop=1;jettySize=auto;html=1;" parent="1" source="6zjgOrCj7R7MlmCkWjps-85" target="6zjgOrCj7R7MlmCkWjps-79" edge="1">
          <mxGeometry relative="1" as="geometry" />
        </mxCell>
        <mxCell id="6zjgOrCj7R7MlmCkWjps-85" value="Web Server" style="rounded=0;whiteSpace=wrap;html=1;rotation=90;" parent="1" vertex="1">
          <mxGeometry x="260" y="1410" width="120" height="60" as="geometry" />
        </mxCell>
        <mxCell id="6zjgOrCj7R7MlmCkWjps-90" value="Public" style="text;html=1;align=center;verticalAlign=middle;whiteSpace=wrap;rounded=0;" parent="1" vertex="1">
          <mxGeometry x="290" y="1510" width="60" height="30" as="geometry" />
        </mxCell>
        <mxCell id="6zjgOrCj7R7MlmCkWjps-91" value="Network" style="text;html=1;align=center;verticalAlign=middle;whiteSpace=wrap;rounded=0;" parent="1" vertex="1">
          <mxGeometry x="110" y="1640" width="60" height="30" as="geometry" />
        </mxCell>
        <mxCell id="6zjgOrCj7R7MlmCkWjps-92" value="n - Tier Architecture" style="text;html=1;align=center;verticalAlign=middle;whiteSpace=wrap;rounded=0;fillColor=#e1d5e7;strokeColor=#9673a6;" parent="1" vertex="1">
          <mxGeometry x="340" y="1780" width="210" height="60" as="geometry" />
        </mxCell>
        <mxCell id="6zjgOrCj7R7MlmCkWjps-93" value="" style="rounded=0;whiteSpace=wrap;html=1;" parent="1" vertex="1">
          <mxGeometry x="60" y="1890" width="750" height="430" as="geometry" />
        </mxCell>
        <mxCell id="6zjgOrCj7R7MlmCkWjps-95" value="browser" style="rounded=1;whiteSpace=wrap;html=1;" parent="1" vertex="1">
          <mxGeometry x="70" y="1970" width="120" height="60" as="geometry" />
        </mxCell>
        <mxCell id="6zjgOrCj7R7MlmCkWjps-97" value="browser" style="rounded=1;whiteSpace=wrap;html=1;" parent="1" vertex="1">
          <mxGeometry x="70" y="2100" width="120" height="60" as="geometry" />
        </mxCell>
        <mxCell id="6zjgOrCj7R7MlmCkWjps-98" value="Client = One who requests a resource" style="text;html=1;align=center;verticalAlign=middle;whiteSpace=wrap;rounded=0;" parent="1" vertex="1">
          <mxGeometry x="140" y="1910" width="250" height="30" as="geometry" />
        </mxCell>
        <mxCell id="6zjgOrCj7R7MlmCkWjps-99" value="Server = One who responds to the client" style="text;html=1;align=center;verticalAlign=middle;whiteSpace=wrap;rounded=0;" parent="1" vertex="1">
          <mxGeometry x="500" y="1910" width="250" height="30" as="geometry" />
        </mxCell>
        <mxCell id="6zjgOrCj7R7MlmCkWjps-100" value="Business Layer" style="text;html=1;align=center;verticalAlign=middle;whiteSpace=wrap;rounded=0;" parent="1" vertex="1">
          <mxGeometry x="430" y="2180" width="60" height="30" as="geometry" />
        </mxCell>
        <mxCell id="6zjgOrCj7R7MlmCkWjps-101" value="Data Layer" style="text;html=1;align=center;verticalAlign=middle;whiteSpace=wrap;rounded=0;" parent="1" vertex="1">
          <mxGeometry x="580" y="2170" width="120" height="30" as="geometry" />
        </mxCell>
        <mxCell id="6zjgOrCj7R7MlmCkWjps-102" value="Client Layer" style="text;html=1;align=center;verticalAlign=middle;whiteSpace=wrap;rounded=0;fillColor=#ffe6cc;strokeColor=#d79b00;" parent="1" vertex="1">
          <mxGeometry x="100" y="2190" width="60" height="30" as="geometry" />
        </mxCell>
        <mxCell id="6zjgOrCj7R7MlmCkWjps-103" value="" style="rounded=0;whiteSpace=wrap;html=1;" parent="1" vertex="1">
          <mxGeometry x="410" y="1940" width="350" height="220" as="geometry" />
        </mxCell>
        <mxCell id="6zjgOrCj7R7MlmCkWjps-104" value="Database" style="rounded=1;whiteSpace=wrap;html=1;rotation=90;" parent="1" vertex="1">
          <mxGeometry x="655" y="2020" width="120" height="60" as="geometry" />
        </mxCell>
        <mxCell id="6zjgOrCj7R7MlmCkWjps-105" value="Application" style="rounded=1;whiteSpace=wrap;html=1;rotation=90;" parent="1" vertex="1">
          <mxGeometry x="440" y="2020" width="120" height="60" as="geometry" />
        </mxCell>
        <mxCell id="6zjgOrCj7R7MlmCkWjps-106" value="" style="shape=flexArrow;endArrow=classic;startArrow=classic;html=1;rounded=0;" parent="1" target="6zjgOrCj7R7MlmCkWjps-104" edge="1">
          <mxGeometry width="100" height="100" relative="1" as="geometry">
            <mxPoint x="570" y="2050" as="sourcePoint" />
            <mxPoint x="705" y="1820" as="targetPoint" />
            <Array as="points">
              <mxPoint x="610" y="2060" />
            </Array>
          </mxGeometry>
        </mxCell>
        <mxCell id="6zjgOrCj7R7MlmCkWjps-107" value="Private" style="text;html=1;align=center;verticalAlign=middle;whiteSpace=wrap;rounded=0;" parent="1" vertex="1">
          <mxGeometry x="710" y="1955" width="60" height="30" as="geometry" />
        </mxCell>
        <mxCell id="6zjgOrCj7R7MlmCkWjps-108" value="" style="edgeStyle=orthogonalEdgeStyle;rounded=0;orthogonalLoop=1;jettySize=auto;html=1;" parent="1" source="6zjgOrCj7R7MlmCkWjps-109" target="6zjgOrCj7R7MlmCkWjps-103" edge="1">
          <mxGeometry relative="1" as="geometry" />
        </mxCell>
        <mxCell id="6zjgOrCj7R7MlmCkWjps-109" value="Web Server" style="rounded=0;whiteSpace=wrap;html=1;rotation=90;" parent="1" vertex="1">
          <mxGeometry x="280" y="1960" width="120" height="60" as="geometry" />
        </mxCell>
        <mxCell id="6zjgOrCj7R7MlmCkWjps-110" value="Public" style="text;html=1;align=center;verticalAlign=middle;whiteSpace=wrap;rounded=0;" parent="1" vertex="1">
          <mxGeometry x="225" y="2180" width="60" height="30" as="geometry" />
        </mxCell>
        <mxCell id="6zjgOrCj7R7MlmCkWjps-111" value="Network" style="text;html=1;align=center;verticalAlign=middle;whiteSpace=wrap;rounded=0;" parent="1" vertex="1">
          <mxGeometry x="110" y="2250" width="60" height="30" as="geometry" />
        </mxCell>
        <mxCell id="6zjgOrCj7R7MlmCkWjps-121" value="" style="edgeStyle=orthogonalEdgeStyle;rounded=0;orthogonalLoop=1;jettySize=auto;html=1;" parent="1" source="6zjgOrCj7R7MlmCkWjps-112" target="6zjgOrCj7R7MlmCkWjps-113" edge="1">
          <mxGeometry relative="1" as="geometry" />
        </mxCell>
        <mxCell id="6zjgOrCj7R7MlmCkWjps-112" value="Load Balancer" style="rounded=1;whiteSpace=wrap;html=1;rotation=90;" parent="1" vertex="1">
          <mxGeometry x="180" y="2030" width="120" height="60" as="geometry" />
        </mxCell>
        <mxCell id="6zjgOrCj7R7MlmCkWjps-116" style="edgeStyle=orthogonalEdgeStyle;rounded=0;orthogonalLoop=1;jettySize=auto;html=1;entryX=0;entryY=0.75;entryDx=0;entryDy=0;" parent="1" source="6zjgOrCj7R7MlmCkWjps-113" target="6zjgOrCj7R7MlmCkWjps-103" edge="1">
          <mxGeometry relative="1" as="geometry" />
        </mxCell>
        <mxCell id="6zjgOrCj7R7MlmCkWjps-113" value="Web Server" style="rounded=0;whiteSpace=wrap;html=1;rotation=90;" parent="1" vertex="1">
          <mxGeometry x="280" y="2090" width="120" height="60" as="geometry" />
        </mxCell>
        <mxCell id="6zjgOrCj7R7MlmCkWjps-118" style="edgeStyle=orthogonalEdgeStyle;rounded=0;orthogonalLoop=1;jettySize=auto;html=1;entryX=0;entryY=1;entryDx=0;entryDy=0;" parent="1" source="6zjgOrCj7R7MlmCkWjps-114" target="6zjgOrCj7R7MlmCkWjps-103" edge="1">
          <mxGeometry relative="1" as="geometry" />
        </mxCell>
        <mxCell id="6zjgOrCj7R7MlmCkWjps-114" value="Web Server" style="rounded=0;whiteSpace=wrap;html=1;rotation=90;" parent="1" vertex="1">
          <mxGeometry x="280" y="2220" width="120" height="60" as="geometry" />
        </mxCell>
        <mxCell id="ap2jdupe477ldWugSMWr-1" value="Private" style="text;html=1;align=center;verticalAlign=middle;whiteSpace=wrap;rounded=0;" vertex="1" parent="1">
          <mxGeometry x="545" y="1600" width="60" height="30" as="geometry" />
        </mxCell>
        <mxCell id="ap2jdupe477ldWugSMWr-2" value="Web Layer" style="text;html=1;align=center;verticalAlign=middle;whiteSpace=wrap;rounded=0;" vertex="1" parent="1">
          <mxGeometry x="290" y="1560" width="60" height="30" as="geometry" />
        </mxCell>
        <mxCell id="ap2jdupe477ldWugSMWr-3" value="" style="endArrow=classic;html=1;rounded=0;exitX=0.822;exitY=0.933;exitDx=0;exitDy=0;exitPerimeter=0;" edge="1" parent="1" source="6zjgOrCj7R7MlmCkWjps-85">
          <mxGeometry width="50" height="50" relative="1" as="geometry">
            <mxPoint x="400" y="1560" as="sourcePoint" />
            <mxPoint x="240" y="1480" as="targetPoint" />
          </mxGeometry>
        </mxCell>
        <mxCell id="ap2jdupe477ldWugSMWr-5" value="" style="endArrow=classic;html=1;rounded=0;exitX=-0.002;exitY=0.694;exitDx=0;exitDy=0;exitPerimeter=0;entryX=0.75;entryY=0;entryDx=0;entryDy=0;" edge="1" parent="1" source="6zjgOrCj7R7MlmCkWjps-79" target="6zjgOrCj7R7MlmCkWjps-85">
          <mxGeometry width="50" height="50" relative="1" as="geometry">
            <mxPoint x="434" y="1490" as="sourcePoint" />
            <mxPoint x="370" y="1490" as="targetPoint" />
          </mxGeometry>
        </mxCell>
      </root>
    </mxGraphModel>
  </diagram>
</mxfile>
